<?xml version="1.0" encoding="UTF-8" standalone="no"?>
<!-- Created with Inkscape (http://www.inkscape.org/) -->

<svg
   xmlns:dc="http://purl.org/dc/elements/1.1/"
   xmlns:cc="http://creativecommons.org/ns#"
   xmlns:rdf="http://www.w3.org/1999/02/22-rdf-syntax-ns#"
   xmlns:svg="http://www.w3.org/2000/svg"
   xmlns="http://www.w3.org/2000/svg"
   xmlns:sodipodi="http://sodipodi.sourceforge.net/DTD/sodipodi-0.dtd"
   xmlns:inkscape="http://www.inkscape.org/namespaces/inkscape"
   id="svg7122"
   version="1.1"
   inkscape:version="0.91 r13725"
   xml:space="preserve"
   width="8cm"
   height="1.8479457cm"
   viewBox="0 0 283.46456 65.478386"
   sodipodi:docname="u1o3.svg"><metadata
     id="metadata7128"><rdf:RDF><cc:Work
         rdf:about=""><dc:format>image/svg+xml</dc:format><dc:type
           rdf:resource="http://purl.org/dc/dcmitype/StillImage" /><dc:title></dc:title></cc:Work></rdf:RDF></metadata><defs
     id="defs7126" /><sodipodi:namedview
     pagecolor="#ffffff"
     bordercolor="#666666"
     borderopacity="1"
     objecttolerance="10"
     gridtolerance="10"
     guidetolerance="10"
     inkscape:pageopacity="0"
     inkscape:pageshadow="2"
     inkscape:window-width="1920"
     inkscape:window-height="1016"
     id="namedview7124"
     showgrid="false"
     fit-margin-top="0"
     fit-margin-left="0"
     fit-margin-right="0"
     fit-margin-bottom="0"
     units="cm"
     inkscape:zoom="8.9983984"
     inkscape:cx="224.9066"
     inkscape:cy="-7.6804166"
     inkscape:window-x="0"
     inkscape:window-y="27"
     inkscape:window-maximized="1"
     inkscape:current-layer="g7130" /><g
     id="g7130"
     inkscape:groupmode="layer"
     inkscape:label="vystup"
     transform="matrix(1.25,0,0,-1.25,-52.654648,139.99891)"><g
       transform="matrix(1,0,0,-1,673.7605,225.43646)"
       id="g7134"><path
         inkscape:connector-curvature="0"
         id="path7136"
         style="fill:none;stroke:#000000;stroke-width:0.86386102;stroke-linecap:round;stroke-linejoin:round;stroke-miterlimit:10;stroke-dasharray:none;stroke-opacity:1"
         d="m -564.691,125.281 0,-5.761" /></g><g
       transform="matrix(1,0,0,-1,673.7605,225.43646)"
       id="g7138"><path
         inkscape:connector-curvature="0"
         id="path7140"
         style="fill:none;stroke:#000000;stroke-width:0.86386102;stroke-linecap:round;stroke-linejoin:round;stroke-miterlimit:10;stroke-dasharray:none;stroke-opacity:1"
         d="m -564.691,119.52 21.601,0" /></g><g
       transform="matrix(1,0,0,-1,673.7605,225.43646)"
       id="g7142"><path
         inkscape:connector-curvature="0"
         id="path7144"
         style="fill:none;stroke:#000000;stroke-width:0.86386102;stroke-linecap:round;stroke-linejoin:round;stroke-miterlimit:10;stroke-dasharray:none;stroke-opacity:1"
         d="m -543.09,119.52 0,5.761" /></g><g
       transform="matrix(1,0,0,-1,673.7605,225.43646)"
       id="g7146"><path
         inkscape:connector-curvature="0"
         id="path7148"
         style="fill:none;stroke:#000000;stroke-width:0.86386102;stroke-linecap:round;stroke-linejoin:round;stroke-miterlimit:10;stroke-dasharray:none;stroke-opacity:1"
         d="m -543.09,125.281 -21.601,0" /></g><g
       transform="matrix(1,0,0,-1,673.7605,225.43646)"
       id="g7150"><path
         inkscape:connector-curvature="0"
         id="path7152"
         style="fill:none;stroke:#000000;stroke-width:0.43193001;stroke-linecap:round;stroke-linejoin:round;stroke-miterlimit:10;stroke-dasharray:none;stroke-opacity:1"
         d="m -564.691,122.398 -7.2,0" /></g><g
       transform="matrix(1,0,0,-1,673.7605,225.43646)"
       id="g7154"><path
         inkscape:connector-curvature="0"
         id="path7156"
         style="fill:none;stroke:#000000;stroke-width:0.43193001;stroke-linecap:round;stroke-linejoin:round;stroke-miterlimit:10;stroke-dasharray:none;stroke-opacity:1"
         d="m -543.09,122.398 7.199,0" /></g><g
       transform="matrix(1,0,0,-1,692.9605,225.43646)"
       id="g7222"><path
         inkscape:connector-curvature="0"
         id="path7224"
         style="fill:none;stroke:#000000;stroke-width:0.86386102;stroke-linecap:round;stroke-linejoin:round;stroke-miterlimit:10;stroke-dasharray:none;stroke-opacity:1"
         d="m -514.289,125.281 0,-5.761" /></g><g
       transform="matrix(1,0,0,-1,692.9605,225.43646)"
       id="g7226"><path
         inkscape:connector-curvature="0"
         id="path7228"
         style="fill:none;stroke:#000000;stroke-width:0.86386102;stroke-linecap:round;stroke-linejoin:round;stroke-miterlimit:10;stroke-dasharray:none;stroke-opacity:1"
         d="m -514.289,119.52 21.598,0" /></g><g
       transform="matrix(1,0,0,-1,692.9605,225.43646)"
       id="g7230"><path
         inkscape:connector-curvature="0"
         id="path7232"
         style="fill:none;stroke:#000000;stroke-width:0.86386102;stroke-linecap:round;stroke-linejoin:round;stroke-miterlimit:10;stroke-dasharray:none;stroke-opacity:1"
         d="m -492.691,119.52 0,5.761" /></g><g
       transform="matrix(1,0,0,-1,692.9605,225.43646)"
       id="g7234"><path
         inkscape:connector-curvature="0"
         id="path7236"
         style="fill:none;stroke:#000000;stroke-width:0.86386102;stroke-linecap:round;stroke-linejoin:round;stroke-miterlimit:10;stroke-dasharray:none;stroke-opacity:1"
         d="m -492.691,125.281 -21.598,0" /></g><g
       transform="matrix(3.4213673,0,0,-1,1937.0049,225.43646)"
       id="g7238"><path
         inkscape:connector-curvature="0"
         id="path7240"
         style="fill:none;stroke:#000000;stroke-width:0.43193001;stroke-linecap:round;stroke-linejoin:round;stroke-miterlimit:10;stroke-dasharray:none;stroke-opacity:1"
         d="m -514.289,122.398 -7.199,0" /></g><g
       transform="matrix(1,0,0,-1,692.9605,225.43646)"
       id="g7242"><path
         inkscape:connector-curvature="0"
         id="path7244"
         style="fill:none;stroke:#000000;stroke-width:0.43193001;stroke-linecap:round;stroke-linejoin:round;stroke-miterlimit:10;stroke-dasharray:none;stroke-opacity:1"
         d="m -492.691,122.398 7.203,0" /></g><g
       transform="matrix(1,0,0,-1,660.9605,225.43646)"
       id="g7350"><path
         inkscape:connector-curvature="0"
         id="path7352"
         style="fill:none;stroke:#000000;stroke-width:0.43193001;stroke-linecap:round;stroke-linejoin:round;stroke-miterlimit:10;stroke-dasharray:none;stroke-opacity:1"
         d="m -442.289,122.398 7.199,0" /></g><g
       transform="matrix(1,0,0,-1,673.7605,268.63646)"
       id="g7458"><path
         inkscape:connector-curvature="0"
         id="path7460"
         style="fill:none;stroke:#000000;stroke-width:0.86386102;stroke-linecap:round;stroke-linejoin:round;stroke-miterlimit:10;stroke-dasharray:none;stroke-opacity:1"
         d="m -571.891,188.879 c 0,3.976 -3.222,7.199 -7.199,7.199 -3.976,0 -7.199,-3.223 -7.199,-7.199 0,-3.977 3.223,-7.199 7.199,-7.199 3.977,0 7.199,3.222 7.199,7.199" /></g><g
       transform="matrix(1,0,0,-1,673.7605,268.63646)"
       id="g7462"><path
         inkscape:connector-curvature="0"
         id="path7464"
         style="fill:none;stroke:#000000;stroke-width:0.43193001;stroke-linecap:round;stroke-linejoin:round;stroke-miterlimit:10;stroke-dasharray:none;stroke-opacity:1"
         d="m -591.809,192.48 1.918,1.918" /></g><g
       transform="matrix(1,0,0,-1,673.7605,268.63646)"
       id="g7466"><path
         inkscape:connector-curvature="0"
         id="path7468"
         style="fill:none;stroke:#000000;stroke-width:0.43193001;stroke-linecap:round;stroke-linejoin:round;stroke-miterlimit:10;stroke-dasharray:none;stroke-opacity:1"
         d="m -582.691,190.801 7.203,0" /></g><g
       transform="matrix(1,0,0,-1,673.7605,268.63646)"
       id="g7470"><path
         inkscape:connector-curvature="0"
         id="path7472"
         style="fill:none;stroke:#000000;stroke-width:0.43193001;stroke-linecap:round;stroke-linejoin:round;stroke-miterlimit:10;stroke-dasharray:none;stroke-opacity:1"
         d="m -582.691,187.199 7.203,0" /></g><g
       transform="matrix(1,0,0,-1,673.7605,268.63646)"
       id="g7474"><path
         inkscape:connector-curvature="0"
         id="path7476"
         style="fill:none;stroke:#000000;stroke-width:0.43193001;stroke-linecap:round;stroke-linejoin:round;stroke-miterlimit:10;stroke-dasharray:none;stroke-opacity:1"
         d="m -579.09,201.602 0,-5.524" /></g><g
       transform="matrix(1,0,0,-1,673.7605,268.63646)"
       id="g7478"><path
         inkscape:connector-curvature="0"
         id="path7480"
         style="fill:none;stroke:#000000;stroke-width:0.43193001;stroke-linecap:round;stroke-linejoin:round;stroke-miterlimit:10;stroke-dasharray:none;stroke-opacity:1"
         d="m -579.09,181.68 0,-5.282" /></g><g
       transform="matrix(1,0,0,-1,673.7605,268.63646)"
       id="g7482"><path
         inkscape:connector-curvature="0"
         id="path7484"
         style="fill:none;stroke:#000000;stroke-width:0.43193001;stroke-linecap:round;stroke-linejoin:round;stroke-miterlimit:10;stroke-dasharray:none;stroke-opacity:1"
         d="m -579.09,178.078 0,0" /></g><g
       transform="matrix(1,0,0,-1,673.7605,268.63646)"
       id="g7486"><path
         inkscape:connector-curvature="0"
         id="path7488"
         style="fill:none;stroke:#000000;stroke-width:0.43193001;stroke-linecap:round;stroke-linejoin:round;stroke-miterlimit:10;stroke-dasharray:none;stroke-opacity:1"
         d="m -589.891,183.602 0,10.796" /></g><g
       transform="matrix(1,0,0,-1,673.7605,268.63646)"
       id="g7490"><path
         inkscape:connector-curvature="0"
         id="path7492"
         style="fill:none;stroke:#000000;stroke-width:0.43193001;stroke-linecap:round;stroke-linejoin:round;stroke-miterlimit:10;stroke-dasharray:none;stroke-opacity:1"
         d="m -589.891,194.398 1.68,-1.918" /></g><g
       transform="matrix(1,0,0,-1,673.7605,268.63646)"
       id="g7494"><path
         inkscape:connector-curvature="0"
         id="path7496"
         style="fill:none;stroke:#000000;stroke-width:0.43193001;stroke-linecap:round;stroke-linejoin:round;stroke-miterlimit:10;stroke-dasharray:none;stroke-opacity:1"
         d="m -579.09,201.602 0,3.597" /></g><g
       transform="matrix(1,0,0,-1,673.7605,268.63646)"
       id="g7498"><path
         inkscape:connector-curvature="0"
         id="path7500"
         style="fill:none;stroke:#000000;stroke-width:0.43193001;stroke-linecap:round;stroke-linejoin:round;stroke-miterlimit:10;stroke-dasharray:none;stroke-opacity:1"
         d="m -579.09,176.398 0,-3.597" /></g><g
       transform="matrix(1,0,0,-1,673.7605,268.63646)"
       id="g7538"><path
         inkscape:connector-curvature="0"
         id="path7540"
         style="fill:none;stroke:#000000;stroke-width:0.43193001;stroke-linecap:round;stroke-linejoin:round;stroke-miterlimit:10;stroke-dasharray:none;stroke-opacity:1"
         d="m -586.289,180 3.359,0" /></g><g
       transform="matrix(1,0,0,-1,673.7605,268.63646)"
       id="g7542"><path
         inkscape:connector-curvature="0"
         id="path7544"
         style="fill:none;stroke:#000000;stroke-width:0.43193001;stroke-linecap:round;stroke-linejoin:round;stroke-miterlimit:10;stroke-dasharray:none;stroke-opacity:1"
         d="m -584.609,181.68 0,-3.36" /></g><g
       transform="matrix(1,0,0,-1,673.7605,268.63646)"
       id="g7546"><path
         inkscape:connector-curvature="0"
         id="path7548"
         style="fill:none;stroke:#000000;stroke-width:0.43193001;stroke-linecap:round;stroke-linejoin:round;stroke-miterlimit:10;stroke-dasharray:none;stroke-opacity:1"
         d="m -586.289,198 3.359,0" /></g><g
       transform="matrix(1,0,0,-1,673.7605,247.83646)"
       id="g7550"><path
         inkscape:connector-curvature="0"
         id="path7552"
         style="fill:none;stroke:#000000;stroke-width:0.86386102;stroke-linecap:round;stroke-linejoin:round;stroke-miterlimit:10;stroke-dasharray:none;stroke-opacity:1"
         d="m -514.289,175.68 0,-5.758" /></g><g
       transform="matrix(1,0,0,-1,673.7605,247.83646)"
       id="g7554"><path
         inkscape:connector-curvature="0"
         id="path7556"
         style="fill:none;stroke:#000000;stroke-width:0.86386102;stroke-linecap:round;stroke-linejoin:round;stroke-miterlimit:10;stroke-dasharray:none;stroke-opacity:1"
         d="m -514.289,169.922 21.598,0" /></g><g
       transform="matrix(1,0,0,-1,673.7605,247.83646)"
       id="g7558"><path
         inkscape:connector-curvature="0"
         id="path7560"
         style="fill:none;stroke:#000000;stroke-width:0.86386102;stroke-linecap:round;stroke-linejoin:round;stroke-miterlimit:10;stroke-dasharray:none;stroke-opacity:1"
         d="m -492.691,169.922 0,5.758" /></g><g
       transform="matrix(1,0,0,-1,673.7605,247.83646)"
       id="g7562"><path
         inkscape:connector-curvature="0"
         id="path7564"
         style="fill:none;stroke:#000000;stroke-width:0.86386102;stroke-linecap:round;stroke-linejoin:round;stroke-miterlimit:10;stroke-dasharray:none;stroke-opacity:1"
         d="m -492.691,175.68 -21.598,0" /></g><g
       transform="matrix(1,0,0,-1,673.7605,247.83646)"
       id="g7566"><path
         inkscape:connector-curvature="0"
         id="path7568"
         style="fill:none;stroke:#000000;stroke-width:0.43193001;stroke-linecap:round;stroke-linejoin:round;stroke-miterlimit:10;stroke-dasharray:none;stroke-opacity:1"
         d="m -514.289,172.801 -7.199,0" /></g><g
       transform="matrix(1,0,0,-4.7371299,660.9605,708.95738)"
       id="g7686"><path
         inkscape:connector-curvature="0"
         id="path7688"
         style="fill:none;stroke:#000000;stroke-width:0.43193001;stroke-linecap:round;stroke-linejoin:round;stroke-miterlimit:10;stroke-dasharray:none;stroke-opacity:1"
         d="m -427.891,136.801 0,-7.199" /></g><g
       transform="matrix(1,0,0,-1,660.9605,247.83646)"
       id="g7746"><path
         inkscape:connector-curvature="0"
         id="path7748"
         style="fill:none;stroke:#000000;stroke-width:0.86386102;stroke-linecap:round;stroke-linejoin:round;stroke-miterlimit:10;stroke-dasharray:none;stroke-opacity:1"
         d="m -463.891,175.68 0,-5.758" /></g><g
       transform="matrix(1,0,0,-1,660.9605,247.83646)"
       id="g7750"><path
         inkscape:connector-curvature="0"
         id="path7752"
         style="fill:none;stroke:#000000;stroke-width:0.86386102;stroke-linecap:round;stroke-linejoin:round;stroke-miterlimit:10;stroke-dasharray:none;stroke-opacity:1"
         d="m -463.891,169.922 21.602,0" /></g><g
       transform="matrix(1,0,0,-1,660.9605,247.83646)"
       id="g7754"><path
         inkscape:connector-curvature="0"
         id="path7756"
         style="fill:none;stroke:#000000;stroke-width:0.86386102;stroke-linecap:round;stroke-linejoin:round;stroke-miterlimit:10;stroke-dasharray:none;stroke-opacity:1"
         d="m -442.289,169.922 0,5.758" /></g><g
       transform="matrix(1,0,0,-1,660.9605,247.83646)"
       id="g7758"><path
         inkscape:connector-curvature="0"
         id="path7760"
         style="fill:none;stroke:#000000;stroke-width:0.86386102;stroke-linecap:round;stroke-linejoin:round;stroke-miterlimit:10;stroke-dasharray:none;stroke-opacity:1"
         d="m -442.289,175.68 -21.602,0" /></g><g
       transform="matrix(2.0942717,0,0,-1,1168.3436,247.83646)"
       id="g7762"><path
         inkscape:connector-curvature="0"
         id="path7764"
         style="fill:none;stroke:#000000;stroke-width:0.43193001;stroke-linecap:round;stroke-linejoin:round;stroke-miterlimit:10;stroke-dasharray:none;stroke-opacity:1"
         d="m -463.891,172.801 -7.199,0" /></g><g
       transform="matrix(1,0,0,-1,660.9605,247.83646)"
       id="g7766"><path
         inkscape:connector-curvature="0"
         id="path7768"
         style="fill:none;stroke:#000000;stroke-width:0.43193001;stroke-linecap:round;stroke-linejoin:round;stroke-miterlimit:10;stroke-dasharray:none;stroke-opacity:1"
         d="m -442.289,172.801 7.199,0" /></g><g
       transform="matrix(1,0,0,-1,673.7605,225.43646)"
       id="g8090"><path
         inkscape:connector-curvature="0"
         id="path8092"
         style="fill:none;stroke:#000000;stroke-width:0.43193001;stroke-linecap:round;stroke-linejoin:round;stroke-miterlimit:10;stroke-dasharray:none;stroke-opacity:1"
         d="m -579.09,122.398 7.199,0" /></g><g
       transform="matrix(1,0,0,-1,660.9605,225.43646)"
       id="g8094"><path
         inkscape:connector-curvature="0"
         id="path8096"
         style="fill:none;stroke:#000000;stroke-width:0.43193001;stroke-linecap:round;stroke-linejoin:round;stroke-miterlimit:10;stroke-dasharray:none;stroke-opacity:1"
         d="m -435.09,122.398 7.199,0" /></g><g
       transform="matrix(1,0,0,-1,660.9605,225.43646)"
       id="g8098"><path
         inkscape:connector-curvature="0"
         id="path8100"
         style="fill:none;stroke:#000000;stroke-width:0.43193001;stroke-linecap:round;stroke-linejoin:round;stroke-miterlimit:10;stroke-dasharray:none;stroke-opacity:1"
         d="m -427.891,122.398 0,7.204" /></g><g
       transform="matrix(1,0,0,-1,660.9605,247.83646)"
       id="g8102"><path
         inkscape:connector-curvature="0"
         id="path8104"
         style="fill:none;stroke:#000000;stroke-width:0.43193001;stroke-linecap:round;stroke-linejoin:round;stroke-miterlimit:10;stroke-dasharray:none;stroke-opacity:1"
         d="m -435.09,172.801 7.199,0" /></g><g
       transform="matrix(1,0,0,-1,660.9605,247.83646)"
       id="g8118"><path
         inkscape:connector-curvature="0"
         id="path8120"
         style="fill:#000000;fill-opacity:1;fill-rule:nonzero;stroke:#000000;stroke-width:0.215965;stroke-linecap:round;stroke-linejoin:round;stroke-miterlimit:10;stroke-dasharray:none;stroke-opacity:1"
         d="m -426.691,172.801 c 0,1.918 -2.879,1.918 -2.879,0 0,-1.922 2.879,-1.922 2.879,0" /></g><g
       transform="matrix(0.9155729,0,0,-1,624.85112,268.63646)"
       id="g8122"><path
         inkscape:connector-curvature="0"
         id="path8124"
         style="fill:none;stroke:#000000;stroke-width:0.43193001;stroke-linecap:round;stroke-linejoin:round;stroke-miterlimit:10;stroke-dasharray:none;stroke-opacity:1"
         d="m -427.891,208.801 -151.199,0" /></g><g
       transform="matrix(1,0,0,-1,673.7605,225.43646)"
       id="g8210"><path
         inkscape:connector-curvature="0"
         id="path8212"
         style="fill:none;stroke:#000000;stroke-width:0.43193001;stroke-linecap:round;stroke-linejoin:round;stroke-miterlimit:10;stroke-dasharray:none;stroke-opacity:1"
         d="m -579.09,129.602 0,-7.204" /></g><g
       transform="matrix(1,0,0,-1,673.7605,268.63646)"
       id="g8218"><path
         inkscape:connector-curvature="0"
         id="path8220"
         style="fill:none;stroke:#000000;stroke-width:0.43193001;stroke-linecap:round;stroke-linejoin:round;stroke-miterlimit:10;stroke-dasharray:none;stroke-opacity:1"
         d="m -579.09,208.801 0,-3.602" /></g><g
       transform="matrix(1,0,0,-1,673.7605,225.43646)"
       id="g8222"><path
         inkscape:connector-curvature="0"
         id="path8224"
         style="fill:none;stroke:#000000;stroke-width:0.43193001;stroke-linecap:round;stroke-linejoin:round;stroke-miterlimit:10;stroke-dasharray:none;stroke-opacity:1"
         d="m -535.891,122.398 14.403,0" /></g><g
       transform="matrix(1,0,0,-1,673.7605,247.83646)"
       id="g8226"><path
         inkscape:connector-curvature="0"
         id="path8228"
         style="fill:none;stroke:#000000;stroke-width:0.43193001;stroke-linecap:round;stroke-linejoin:round;stroke-miterlimit:10;stroke-dasharray:none;stroke-opacity:1"
         d="m -521.488,172.801 -7.203,0" /></g><g
       transform="matrix(1,0,0,-0.55845865,673.7605,171.4894)"
       id="g8230"><path
         inkscape:connector-curvature="0"
         id="path8232"
         style="fill:none;stroke:#000000;stroke-width:0.43193001;stroke-linecap:round;stroke-linejoin:round;stroke-miterlimit:10;stroke-dasharray:none;stroke-opacity:1"
         d="m -528.691,172.801 0,-50.403" /></g><g
       transform="matrix(1,0,0,-1,673.7605,225.43646)"
       id="g8234"><path
         inkscape:connector-curvature="0"
         id="path8236"
         style="fill:#000000;fill-opacity:1;fill-rule:nonzero;stroke:#000000;stroke-width:0.215965;stroke-linecap:round;stroke-linejoin:round;stroke-miterlimit:10;stroke-dasharray:none;stroke-opacity:1"
         d="m -527.488,122.398 c 0,1.922 -2.883,1.922 -2.883,0 0,-1.918 2.883,-1.918 2.883,0" /></g><g
       transform="matrix(2.1235545,0,0,-1,1232.1033,225.43646)"
       id="g8238"><path
         inkscape:connector-curvature="0"
         id="path8240"
         style="fill:none;stroke:#000000;stroke-width:0.43193001;stroke-linecap:round;stroke-linejoin:round;stroke-miterlimit:10;stroke-dasharray:none;stroke-opacity:1"
         d="m -485.488,122.398 14.398,0" /></g><text
       xml:space="preserve"
       style="font-style:normal;font-weight:normal;font-size:6px;line-height:125%;font-family:sans-serif;letter-spacing:0px;word-spacing:0px;fill:#000000;fill-opacity:1;stroke:none;stroke-width:1px;stroke-linecap:butt;stroke-linejoin:miter;stroke-opacity:1"
       x="76.802231"
       y="-78.153"
       id="text16428"
       sodipodi:linespacing="125%"
       transform="scale(1,-1)"><tspan
         sodipodi:role="line"
         id="tspan16430"
         x="76.802231"
         y="-78.153">U</tspan></text>
<text
       xml:space="preserve"
       style="font-style:normal;font-weight:normal;font-size:6px;line-height:125%;font-family:sans-serif;letter-spacing:0px;word-spacing:0px;fill:#000000;fill-opacity:1;stroke:none;stroke-width:1px;stroke-linecap:butt;stroke-linejoin:miter;stroke-opacity:1"
       x="116.53299"
       y="-107.62511"
       id="text16432"
       sodipodi:linespacing="125%"
       transform="scale(1,-1)"><tspan
         sodipodi:role="line"
         id="tspan16434"
         x="116.53299"
         y="-107.62511">R<tspan
   style="font-size:3px"
   id="tspan16438">1A</tspan></tspan></text>
<text
       xml:space="preserve"
       style="font-style:normal;font-weight:normal;font-size:6px;line-height:125%;font-family:sans-serif;letter-spacing:0px;word-spacing:0px;fill:#000000;fill-opacity:1;stroke:none;stroke-width:1px;stroke-linecap:butt;stroke-linejoin:miter;stroke-opacity:1"
       x="186.40303"
       y="-107.44978"
       id="text16432-6"
       sodipodi:linespacing="125%"
       transform="scale(1,-1)"><tspan
         sodipodi:role="line"
         id="tspan16434-8"
         x="186.40303"
         y="-107.44978">R<tspan
   style="font-size:3px"
   id="tspan16438-8">B57</tspan></tspan></text>
<text
       xml:space="preserve"
       style="font-style:normal;font-weight:normal;font-size:6px;line-height:125%;font-family:sans-serif;letter-spacing:0px;word-spacing:0px;fill:#000000;fill-opacity:1;stroke:none;stroke-width:1px;stroke-linecap:butt;stroke-linejoin:miter;stroke-opacity:1"
       x="167.20296"
       y="-79.557663"
       id="text16432-3"
       sodipodi:linespacing="125%"
       transform="scale(1,-1)"><tspan
         sodipodi:role="line"
         id="tspan16434-7"
         x="167.20296"
         y="-79.557663">R<tspan
   style="font-size:3px"
   id="tspan16438-3">C</tspan></tspan></text>
<text
       xml:space="preserve"
       style="font-style:normal;font-weight:normal;font-size:6px;line-height:125%;font-family:sans-serif;letter-spacing:0px;word-spacing:0px;fill:#000000;fill-opacity:1;stroke:none;stroke-width:1px;stroke-linecap:butt;stroke-linejoin:miter;stroke-opacity:1"
       x="204.44354"
       y="-79.054741"
       id="text16432-66"
       sodipodi:linespacing="125%"
       transform="scale(1,-1)"><tspan
         sodipodi:role="line"
         id="tspan16434-2"
         x="204.44354"
         y="-79.054741">R<tspan
   style="font-size:3px"
   id="tspan16438-58">68</tspan></tspan></text>
</g></svg>