<?xml version="1.0" encoding="UTF-8" standalone="no"?>
<!-- Created with Inkscape (http://www.inkscape.org/) -->

<svg
   xmlns:dc="http://purl.org/dc/elements/1.1/"
   xmlns:cc="http://creativecommons.org/ns#"
   xmlns:rdf="http://www.w3.org/1999/02/22-rdf-syntax-ns#"
   xmlns:svg="http://www.w3.org/2000/svg"
   xmlns="http://www.w3.org/2000/svg"
   xmlns:sodipodi="http://sodipodi.sourceforge.net/DTD/sodipodi-0.dtd"
   xmlns:inkscape="http://www.inkscape.org/namespaces/inkscape"
   id="svg5327"
   version="1.1"
   inkscape:version="0.91 r13725"
   xml:space="preserve"
   width="283.46457"
   height="120.28081"
   viewBox="0 0 283.46457 120.28081"
   sodipodi:docname="u1o7.svg"><metadata
     id="metadata5333"><rdf:RDF><cc:Work
         rdf:about=""><dc:format>image/svg+xml</dc:format><dc:type
           rdf:resource="http://purl.org/dc/dcmitype/StillImage" /><dc:title></dc:title></cc:Work></rdf:RDF></metadata><defs
     id="defs5331" /><sodipodi:namedview
     pagecolor="#ffffff"
     bordercolor="#666666"
     borderopacity="1"
     objecttolerance="10"
     gridtolerance="10"
     guidetolerance="10"
     inkscape:pageopacity="0"
     inkscape:pageshadow="2"
     inkscape:window-width="1920"
     inkscape:window-height="1016"
     id="namedview5329"
     showgrid="false"
     inkscape:zoom="4.7695138"
     inkscape:cx="128.68471"
     inkscape:cy="36.283634"
     inkscape:window-x="0"
     inkscape:window-y="27"
     inkscape:window-maximized="1"
     inkscape:current-layer="g5335" /><g
     id="g5335"
     inkscape:groupmode="layer"
     inkscape:label="u1o1"
     transform="matrix(1.25,0,0,-1.25,0,120.28081)"><g
       transform="matrix(1,0,0,-1,0,96.224648)"
       id="g5339"><path
         inkscape:connector-curvature="0"
         id="path5341"
         style="fill:none;stroke:#000000;stroke-width:0.86386102;stroke-linecap:round;stroke-linejoin:round;stroke-miterlimit:10;stroke-dasharray:none;stroke-opacity:1"
         d="m 55.863,12.484 0,-5.757" /></g><g
       transform="matrix(1,0,0,-1,0,96.224648)"
       id="g5343"><path
         inkscape:connector-curvature="0"
         id="path5345"
         style="fill:none;stroke:#000000;stroke-width:0.86386102;stroke-linecap:round;stroke-linejoin:round;stroke-miterlimit:10;stroke-dasharray:none;stroke-opacity:1"
         d="m 55.863,6.727 21.602,0" /></g><g
       transform="matrix(1,0,0,-1,0,96.224648)"
       id="g5347"><path
         inkscape:connector-curvature="0"
         id="path5349"
         style="fill:none;stroke:#000000;stroke-width:0.86386102;stroke-linecap:round;stroke-linejoin:round;stroke-miterlimit:10;stroke-dasharray:none;stroke-opacity:1"
         d="m 77.465,6.727 0,5.757" /></g><g
       transform="matrix(1,0,0,-1,0,96.224648)"
       id="g5351"><path
         inkscape:connector-curvature="0"
         id="path5353"
         style="fill:none;stroke:#000000;stroke-width:0.86386102;stroke-linecap:round;stroke-linejoin:round;stroke-miterlimit:10;stroke-dasharray:none;stroke-opacity:1"
         d="m 77.465,12.484 -21.602,0" /></g><g
       transform="matrix(1,0,0,-1,0,96.224648)"
       id="g5355"><path
         inkscape:connector-curvature="0"
         id="path5357"
         style="fill:none;stroke:#000000;stroke-width:0.43193001;stroke-linecap:round;stroke-linejoin:round;stroke-miterlimit:10;stroke-dasharray:none;stroke-opacity:1"
         d="m 55.863,9.602 -7.199,0" /></g><g
       transform="matrix(1,0,0,-1,0,96.224648)"
       id="g5359"><path
         inkscape:connector-curvature="0"
         id="path5361"
         style="fill:none;stroke:#000000;stroke-width:0.43193001;stroke-linecap:round;stroke-linejoin:round;stroke-miterlimit:10;stroke-dasharray:none;stroke-opacity:1"
         d="m 77.465,9.602 7.199,0" /></g><g
       transform="matrix(1,0,0,-1,0,96.224648)"
       id="g5363"><path
         inkscape:connector-curvature="0"
         id="path5365"
         style="fill:none;stroke:#000000;stroke-width:0.86386102;stroke-linecap:round;stroke-linejoin:round;stroke-miterlimit:10;stroke-dasharray:none;stroke-opacity:1"
         d="m 106.266,12.484 0,-5.757" /></g><g
       transform="matrix(1,0,0,-1,0,96.224648)"
       id="g5367"><path
         inkscape:connector-curvature="0"
         id="path5369"
         style="fill:none;stroke:#000000;stroke-width:0.86386102;stroke-linecap:round;stroke-linejoin:round;stroke-miterlimit:10;stroke-dasharray:none;stroke-opacity:1"
         d="m 106.266,6.727 21.597,0" /></g><g
       transform="matrix(1,0,0,-1,0,96.224648)"
       id="g5371"><path
         inkscape:connector-curvature="0"
         id="path5373"
         style="fill:none;stroke:#000000;stroke-width:0.86386102;stroke-linecap:round;stroke-linejoin:round;stroke-miterlimit:10;stroke-dasharray:none;stroke-opacity:1"
         d="m 127.863,6.727 0,5.757" /></g><g
       transform="matrix(1,0,0,-1,0,96.224648)"
       id="g5375"><path
         inkscape:connector-curvature="0"
         id="path5377"
         style="fill:none;stroke:#000000;stroke-width:0.86386102;stroke-linecap:round;stroke-linejoin:round;stroke-miterlimit:10;stroke-dasharray:none;stroke-opacity:1"
         d="m 127.863,12.484 -21.597,0" /></g><g
       transform="matrix(1,0,0,-1,0,96.224648)"
       id="g5379"><path
         inkscape:connector-curvature="0"
         id="path5381"
         style="fill:none;stroke:#000000;stroke-width:0.43193001;stroke-linecap:round;stroke-linejoin:round;stroke-miterlimit:10;stroke-dasharray:none;stroke-opacity:1"
         d="m 106.266,9.602 -7.2,0" /></g><g
       transform="matrix(1,0,0,-1,0,96.224648)"
       id="g5383"><path
         inkscape:connector-curvature="0"
         id="path5385"
         style="fill:none;stroke:#000000;stroke-width:0.43193001;stroke-linecap:round;stroke-linejoin:round;stroke-miterlimit:10;stroke-dasharray:none;stroke-opacity:1"
         d="m 127.863,9.602 7.203,0" /></g><g
       transform="matrix(1,0,0,-1,0,96.224648)"
       id="g5387"><path
         inkscape:connector-curvature="0"
         id="path5389"
         style="fill:none;stroke:#000000;stroke-width:0.86386102;stroke-linecap:round;stroke-linejoin:round;stroke-miterlimit:10;stroke-dasharray:none;stroke-opacity:1"
         d="m 139.387,24.004 0,21.598" /></g><g
       transform="matrix(1,0,0,-1,0,96.224648)"
       id="g5391"><path
         inkscape:connector-curvature="0"
         id="path5393"
         style="fill:none;stroke:#000000;stroke-width:0.86386102;stroke-linecap:round;stroke-linejoin:round;stroke-miterlimit:10;stroke-dasharray:none;stroke-opacity:1"
         d="m 139.387,45.602 5.758,0" /></g><g
       transform="matrix(1,0,0,-1,0,96.224648)"
       id="g5395"><path
         inkscape:connector-curvature="0"
         id="path5397"
         style="fill:none;stroke:#000000;stroke-width:0.86386102;stroke-linecap:round;stroke-linejoin:round;stroke-miterlimit:10;stroke-dasharray:none;stroke-opacity:1"
         d="m 145.145,45.602 0,-21.598" /></g><g
       transform="matrix(1,0,0,-1,0,96.224648)"
       id="g5399"><path
         inkscape:connector-curvature="0"
         id="path5401"
         style="fill:none;stroke:#000000;stroke-width:0.86386102;stroke-linecap:round;stroke-linejoin:round;stroke-miterlimit:10;stroke-dasharray:none;stroke-opacity:1"
         d="m 145.145,24.004 -5.758,0" /></g><g
       transform="matrix(1,0,0,-1,0,96.224648)"
       id="g5403"><path
         inkscape:connector-curvature="0"
         id="path5405"
         style="fill:none;stroke:#000000;stroke-width:0.43193001;stroke-linecap:round;stroke-linejoin:round;stroke-miterlimit:10;stroke-dasharray:none;stroke-opacity:1"
         d="m 142.266,24.004 0,-7.199" /></g><g
       transform="matrix(1,0,0,-1,0,96.224648)"
       id="g5407"><path
         inkscape:connector-curvature="0"
         id="path5409"
         style="fill:none;stroke:#000000;stroke-width:0.43193001;stroke-linecap:round;stroke-linejoin:round;stroke-miterlimit:10;stroke-dasharray:none;stroke-opacity:1"
         d="m 142.266,45.602 0,7.203" /></g><g
       transform="matrix(1,0,0,-1,0,96.224648)"
       id="g5411"><path
         inkscape:connector-curvature="0"
         id="path5413"
         style="fill:none;stroke:#000000;stroke-width:0.86386102;stroke-linecap:round;stroke-linejoin:round;stroke-miterlimit:10;stroke-dasharray:none;stroke-opacity:1"
         d="m 156.664,12.484 0,-5.757" /></g><g
       transform="matrix(1,0,0,-1,0,96.224648)"
       id="g5415"><path
         inkscape:connector-curvature="0"
         id="path5417"
         style="fill:none;stroke:#000000;stroke-width:0.86386102;stroke-linecap:round;stroke-linejoin:round;stroke-miterlimit:10;stroke-dasharray:none;stroke-opacity:1"
         d="m 156.664,6.727 21.602,0" /></g><g
       transform="matrix(1,0,0,-1,0,96.224648)"
       id="g5419"><path
         inkscape:connector-curvature="0"
         id="path5421"
         style="fill:none;stroke:#000000;stroke-width:0.86386102;stroke-linecap:round;stroke-linejoin:round;stroke-miterlimit:10;stroke-dasharray:none;stroke-opacity:1"
         d="m 178.266,6.727 0,5.757" /></g><g
       transform="matrix(1,0,0,-1,0,96.224648)"
       id="g5423"><path
         inkscape:connector-curvature="0"
         id="path5425"
         style="fill:none;stroke:#000000;stroke-width:0.86386102;stroke-linecap:round;stroke-linejoin:round;stroke-miterlimit:10;stroke-dasharray:none;stroke-opacity:1"
         d="m 178.266,12.484 -21.602,0" /></g><g
       transform="matrix(1,0,0,-1,0,96.224648)"
       id="g5427"><path
         inkscape:connector-curvature="0"
         id="path5429"
         style="fill:none;stroke:#000000;stroke-width:0.43193001;stroke-linecap:round;stroke-linejoin:round;stroke-miterlimit:10;stroke-dasharray:none;stroke-opacity:1"
         d="m 156.664,9.602 -7.199,0" /></g><g
       transform="matrix(1,0,0,-1,0,96.224648)"
       id="g5431"><path
         inkscape:connector-curvature="0"
         id="path5433"
         style="fill:none;stroke:#000000;stroke-width:0.43193001;stroke-linecap:round;stroke-linejoin:round;stroke-miterlimit:10;stroke-dasharray:none;stroke-opacity:1"
         d="m 178.266,9.602 7.199,0" /></g><g
       transform="matrix(1,0,0,-1,0,96.224648)"
       id="g5435"><path
         inkscape:connector-curvature="0"
         id="path5437"
         style="fill:none;stroke:#000000;stroke-width:0.86386102;stroke-linecap:round;stroke-linejoin:round;stroke-miterlimit:10;stroke-dasharray:none;stroke-opacity:1"
         d="m 48.664,50.883 c 0,3.976 -3.223,7.199 -7.199,7.199 -3.977,0 -7.199,-3.223 -7.199,-7.199 0,-3.977 3.222,-7.199 7.199,-7.199 3.976,0 7.199,3.222 7.199,7.199" /></g><g
       transform="matrix(1,0,0,-1,0,96.224648)"
       id="g5439"><path
         inkscape:connector-curvature="0"
         id="path5441"
         style="fill:none;stroke:#000000;stroke-width:0.43193001;stroke-linecap:round;stroke-linejoin:round;stroke-miterlimit:10;stroke-dasharray:none;stroke-opacity:1"
         d="m 28.746,54.484 1.918,1.918" /></g><g
       transform="matrix(1,0,0,-1,0,96.224648)"
       id="g5443"><path
         inkscape:connector-curvature="0"
         id="path5445"
         style="fill:none;stroke:#000000;stroke-width:0.43193001;stroke-linecap:round;stroke-linejoin:round;stroke-miterlimit:10;stroke-dasharray:none;stroke-opacity:1"
         d="m 37.863,52.805 7.203,0" /></g><g
       transform="matrix(1,0,0,-1,0,96.224648)"
       id="g5447"><path
         inkscape:connector-curvature="0"
         id="path5449"
         style="fill:none;stroke:#000000;stroke-width:0.43193001;stroke-linecap:round;stroke-linejoin:round;stroke-miterlimit:10;stroke-dasharray:none;stroke-opacity:1"
         d="m 37.863,49.203 7.203,0" /></g><g
       transform="matrix(1,0,0,-1,0,96.224648)"
       id="g5451"><path
         inkscape:connector-curvature="0"
         id="path5453"
         style="fill:none;stroke:#000000;stroke-width:0.43193001;stroke-linecap:round;stroke-linejoin:round;stroke-miterlimit:10;stroke-dasharray:none;stroke-opacity:1"
         d="m 41.465,63.602 0,-5.52" /></g><g
       transform="matrix(1,0,0,-1,0,96.224648)"
       id="g5455"><path
         inkscape:connector-curvature="0"
         id="path5457"
         style="fill:none;stroke:#000000;stroke-width:0.43193001;stroke-linecap:round;stroke-linejoin:round;stroke-miterlimit:10;stroke-dasharray:none;stroke-opacity:1"
         d="m 41.465,43.684 0,-5.282" /></g><g
       transform="matrix(1,0,0,-1,0,96.224648)"
       id="g5459"><path
         inkscape:connector-curvature="0"
         id="path5461"
         style="fill:none;stroke:#000000;stroke-width:0.43193001;stroke-linecap:round;stroke-linejoin:round;stroke-miterlimit:10;stroke-dasharray:none;stroke-opacity:1"
         d="m 41.465,40.082 0,0" /></g><g
       transform="matrix(1,0,0,-1,0,96.224648)"
       id="g5463"><path
         inkscape:connector-curvature="0"
         id="path5465"
         style="fill:none;stroke:#000000;stroke-width:0.43193001;stroke-linecap:round;stroke-linejoin:round;stroke-miterlimit:10;stroke-dasharray:none;stroke-opacity:1"
         d="m 30.664,45.602 0,10.8" /></g><g
       transform="matrix(1,0,0,-1,0,96.224648)"
       id="g5467"><path
         inkscape:connector-curvature="0"
         id="path5469"
         style="fill:none;stroke:#000000;stroke-width:0.43193001;stroke-linecap:round;stroke-linejoin:round;stroke-miterlimit:10;stroke-dasharray:none;stroke-opacity:1"
         d="m 30.664,56.402 1.68,-1.918" /></g><g
       transform="matrix(1,0,0,-1,0,96.224648)"
       id="g5471"><path
         inkscape:connector-curvature="0"
         id="path5473"
         style="fill:none;stroke:#000000;stroke-width:0.43193001;stroke-linecap:round;stroke-linejoin:round;stroke-miterlimit:10;stroke-dasharray:none;stroke-opacity:1"
         d="m 41.465,63.602 0,3.601" /></g><g
       transform="matrix(1,0,0,-1,0,96.224648)"
       id="g5475"><path
         inkscape:connector-curvature="0"
         id="path5477"
         style="fill:none;stroke:#000000;stroke-width:0.43193001;stroke-linecap:round;stroke-linejoin:round;stroke-miterlimit:10;stroke-dasharray:none;stroke-opacity:1"
         d="m 41.465,38.402 0,-3.597" /></g><g
       transform="matrix(1,0,0,-1,0,96.224648)"
       id="g5479"><path
         inkscape:connector-curvature="0"
         id="path5481"
         style="fill:none;stroke:#000000;stroke-width:0.43193001;stroke-linecap:round;stroke-linejoin:round;stroke-miterlimit:10;stroke-dasharray:none;stroke-opacity:1"
         d="m 34.266,42.004 3.359,0" /></g><g
       transform="matrix(1,0,0,-1,0,96.224648)"
       id="g5483"><path
         inkscape:connector-curvature="0"
         id="path5485"
         style="fill:none;stroke:#000000;stroke-width:0.43193001;stroke-linecap:round;stroke-linejoin:round;stroke-miterlimit:10;stroke-dasharray:none;stroke-opacity:1"
         d="m 35.945,43.684 0,-3.36" /></g><g
       transform="matrix(1,0,0,-1,0,96.224648)"
       id="g5487"><path
         inkscape:connector-curvature="0"
         id="path5489"
         style="fill:none;stroke:#000000;stroke-width:0.43193001;stroke-linecap:round;stroke-linejoin:round;stroke-miterlimit:10;stroke-dasharray:none;stroke-opacity:1"
         d="m 34.266,60.004 3.359,0" /></g><g
       transform="matrix(1,0,0,-1,0,96.224648)"
       id="g5491"><path
         inkscape:connector-curvature="0"
         id="path5493"
         style="fill:none;stroke:#000000;stroke-width:0.86386102;stroke-linecap:round;stroke-linejoin:round;stroke-miterlimit:10;stroke-dasharray:none;stroke-opacity:1"
         d="m 106.266,62.883 0,-5.758" /></g><g
       transform="matrix(1,0,0,-1,0,96.224648)"
       id="g5495"><path
         inkscape:connector-curvature="0"
         id="path5497"
         style="fill:none;stroke:#000000;stroke-width:0.86386102;stroke-linecap:round;stroke-linejoin:round;stroke-miterlimit:10;stroke-dasharray:none;stroke-opacity:1"
         d="m 106.266,57.125 21.597,0" /></g><g
       transform="matrix(1,0,0,-1,0,96.224648)"
       id="g5499"><path
         inkscape:connector-curvature="0"
         id="path5501"
         style="fill:none;stroke:#000000;stroke-width:0.86386102;stroke-linecap:round;stroke-linejoin:round;stroke-miterlimit:10;stroke-dasharray:none;stroke-opacity:1"
         d="m 127.863,57.125 0,5.758" /></g><g
       transform="matrix(1,0,0,-1,0,96.224648)"
       id="g5503"><path
         inkscape:connector-curvature="0"
         id="path5505"
         style="fill:none;stroke:#000000;stroke-width:0.86386102;stroke-linecap:round;stroke-linejoin:round;stroke-miterlimit:10;stroke-dasharray:none;stroke-opacity:1"
         d="m 127.863,62.883 -21.597,0" /></g><g
       transform="matrix(1,0,0,-1,0,96.224648)"
       id="g5507"><path
         inkscape:connector-curvature="0"
         id="path5509"
         style="fill:none;stroke:#000000;stroke-width:0.43193001;stroke-linecap:round;stroke-linejoin:round;stroke-miterlimit:10;stroke-dasharray:none;stroke-opacity:1"
         d="m 106.266,60.004 -7.2,0" /></g><g
       transform="matrix(1,0,0,-1,0,96.224648)"
       id="g5511"><path
         inkscape:connector-curvature="0"
         id="path5513"
         style="fill:none;stroke:#000000;stroke-width:0.43193001;stroke-linecap:round;stroke-linejoin:round;stroke-miterlimit:10;stroke-dasharray:none;stroke-opacity:1"
         d="m 127.863,60.004 7.203,0" /></g><g
       transform="matrix(1,0,0,-1,0,96.224648)"
       id="g5515"><path
         inkscape:connector-curvature="0"
         id="path5517"
         style="fill:none;stroke:#000000;stroke-width:0.86386102;stroke-linecap:round;stroke-linejoin:round;stroke-miterlimit:10;stroke-dasharray:none;stroke-opacity:1"
         d="m 189.785,24.004 0,21.598" /></g><g
       transform="matrix(1,0,0,-1,0,96.224648)"
       id="g5519"><path
         inkscape:connector-curvature="0"
         id="path5521"
         style="fill:none;stroke:#000000;stroke-width:0.86386102;stroke-linecap:round;stroke-linejoin:round;stroke-miterlimit:10;stroke-dasharray:none;stroke-opacity:1"
         d="m 189.785,45.602 5.762,0" /></g><g
       transform="matrix(1,0,0,-1,0,96.224648)"
       id="g5523"><path
         inkscape:connector-curvature="0"
         id="path5525"
         style="fill:none;stroke:#000000;stroke-width:0.86386102;stroke-linecap:round;stroke-linejoin:round;stroke-miterlimit:10;stroke-dasharray:none;stroke-opacity:1"
         d="m 195.547,45.602 0,-21.598" /></g><g
       transform="matrix(1,0,0,-1,0,96.224648)"
       id="g5527"><path
         inkscape:connector-curvature="0"
         id="path5529"
         style="fill:none;stroke:#000000;stroke-width:0.86386102;stroke-linecap:round;stroke-linejoin:round;stroke-miterlimit:10;stroke-dasharray:none;stroke-opacity:1"
         d="m 195.547,24.004 -5.762,0" /></g><g
       transform="matrix(1,0,0,-1,0,96.224648)"
       id="g5531"><path
         inkscape:connector-curvature="0"
         id="path5533"
         style="fill:none;stroke:#000000;stroke-width:0.43193001;stroke-linecap:round;stroke-linejoin:round;stroke-miterlimit:10;stroke-dasharray:none;stroke-opacity:1"
         d="m 192.664,24.004 0,-7.199" /></g><g
       transform="matrix(1,0,0,-1,0,96.224648)"
       id="g5535"><path
         inkscape:connector-curvature="0"
         id="path5537"
         style="fill:none;stroke:#000000;stroke-width:0.43193001;stroke-linecap:round;stroke-linejoin:round;stroke-miterlimit:10;stroke-dasharray:none;stroke-opacity:1"
         d="m 192.664,45.602 0,7.203" /></g><g
       transform="matrix(1,0,0,-1,0,96.224648)"
       id="g5539"><path
         inkscape:connector-curvature="0"
         id="path5541"
         style="fill:none;stroke:#000000;stroke-width:0.86386102;stroke-linecap:round;stroke-linejoin:round;stroke-miterlimit:10;stroke-dasharray:none;stroke-opacity:1"
         d="m 156.664,62.883 0,-5.758" /></g><g
       transform="matrix(1,0,0,-1,0,96.224648)"
       id="g5543"><path
         inkscape:connector-curvature="0"
         id="path5545"
         style="fill:none;stroke:#000000;stroke-width:0.86386102;stroke-linecap:round;stroke-linejoin:round;stroke-miterlimit:10;stroke-dasharray:none;stroke-opacity:1"
         d="m 156.664,57.125 21.602,0" /></g><g
       transform="matrix(1,0,0,-1,0,96.224648)"
       id="g5547"><path
         inkscape:connector-curvature="0"
         id="path5549"
         style="fill:none;stroke:#000000;stroke-width:0.86386102;stroke-linecap:round;stroke-linejoin:round;stroke-miterlimit:10;stroke-dasharray:none;stroke-opacity:1"
         d="m 178.266,57.125 0,5.758" /></g><g
       transform="matrix(1,0,0,-1,0,96.224648)"
       id="g5551"><path
         inkscape:connector-curvature="0"
         id="path5553"
         style="fill:none;stroke:#000000;stroke-width:0.86386102;stroke-linecap:round;stroke-linejoin:round;stroke-miterlimit:10;stroke-dasharray:none;stroke-opacity:1"
         d="m 178.266,62.883 -21.602,0" /></g><g
       transform="matrix(1,0,0,-1,0,96.224648)"
       id="g5555"><path
         inkscape:connector-curvature="0"
         id="path5557"
         style="fill:none;stroke:#000000;stroke-width:0.43193001;stroke-linecap:round;stroke-linejoin:round;stroke-miterlimit:10;stroke-dasharray:none;stroke-opacity:1"
         d="m 156.664,60.004 -7.199,0" /></g><g
       transform="matrix(1,0,0,-1,0,96.224648)"
       id="g5559"><path
         inkscape:connector-curvature="0"
         id="path5561"
         style="fill:none;stroke:#000000;stroke-width:0.43193001;stroke-linecap:round;stroke-linejoin:round;stroke-miterlimit:10;stroke-dasharray:none;stroke-opacity:1"
         d="m 178.266,60.004 7.199,0" /></g><g
       transform="matrix(1,0,0,-1,0,96.224648)"
       id="g5563"><path
         inkscape:connector-curvature="0"
         id="path5565"
         style="fill:none;stroke:#000000;stroke-width:0.86386102;stroke-linecap:round;stroke-linejoin:round;stroke-miterlimit:10;stroke-dasharray:none;stroke-opacity:1"
         d="m 156.664,80.883 0,-5.758" /></g><g
       transform="matrix(1,0,0,-1,0,96.224648)"
       id="g5567"><path
         inkscape:connector-curvature="0"
         id="path5569"
         style="fill:none;stroke:#000000;stroke-width:0.86386102;stroke-linecap:round;stroke-linejoin:round;stroke-miterlimit:10;stroke-dasharray:none;stroke-opacity:1"
         d="m 156.664,75.125 21.602,0" /></g><g
       transform="matrix(1,0,0,-1,0,96.224648)"
       id="g5571"><path
         inkscape:connector-curvature="0"
         id="path5573"
         style="fill:none;stroke:#000000;stroke-width:0.86386102;stroke-linecap:round;stroke-linejoin:round;stroke-miterlimit:10;stroke-dasharray:none;stroke-opacity:1"
         d="m 178.266,75.125 0,5.758" /></g><g
       transform="matrix(1,0,0,-1,0,96.224648)"
       id="g5575"><path
         inkscape:connector-curvature="0"
         id="path5577"
         style="fill:none;stroke:#000000;stroke-width:0.86386102;stroke-linecap:round;stroke-linejoin:round;stroke-miterlimit:10;stroke-dasharray:none;stroke-opacity:1"
         d="m 178.266,80.883 -21.602,0" /></g><g
       transform="matrix(1,0,0,-1,0,96.224648)"
       id="g5579"><path
         inkscape:connector-curvature="0"
         id="path5581"
         style="fill:none;stroke:#000000;stroke-width:0.43193001;stroke-linecap:round;stroke-linejoin:round;stroke-miterlimit:10;stroke-dasharray:none;stroke-opacity:1"
         d="m 156.664,78.004 -7.199,0" /></g><g
       transform="matrix(1,0,0,-1,0,96.224648)"
       id="g5583"><path
         inkscape:connector-curvature="0"
         id="path5585"
         style="fill:none;stroke:#000000;stroke-width:0.43193001;stroke-linecap:round;stroke-linejoin:round;stroke-miterlimit:10;stroke-dasharray:none;stroke-opacity:1"
         d="m 178.266,78.004 7.199,0" /></g><g
       transform="matrix(1,0,0,-1,0,96.224648)"
       id="g5587"><path
         inkscape:connector-curvature="0"
         id="path5589"
         style="fill:none;stroke:#000000;stroke-width:0.43193001;stroke-linecap:round;stroke-linejoin:round;stroke-miterlimit:10;stroke-dasharray:none;stroke-opacity:1"
         d="m 41.465,34.805 0,-25.203" /></g><g
       transform="matrix(1,0,0,-1,0,96.224648)"
       id="g5591"><path
         inkscape:connector-curvature="0"
         id="path5593"
         style="fill:none;stroke:#000000;stroke-width:0.43193001;stroke-linecap:round;stroke-linejoin:round;stroke-miterlimit:10;stroke-dasharray:none;stroke-opacity:1"
         d="m 41.465,9.602 7.199,0" /></g><g
       transform="matrix(1,0,0,-1,0,96.224648)"
       id="g5595"><path
         inkscape:connector-curvature="0"
         id="path5597"
         style="fill:none;stroke:#000000;stroke-width:0.43193001;stroke-linecap:round;stroke-linejoin:round;stroke-miterlimit:10;stroke-dasharray:none;stroke-opacity:1"
         d="m 84.664,9.602 14.402,0" /></g><g
       transform="matrix(1,0,0,-1,0,96.224648)"
       id="g5599"><path
         inkscape:connector-curvature="0"
         id="path5601"
         style="fill:none;stroke:#000000;stroke-width:0.43193001;stroke-linecap:round;stroke-linejoin:round;stroke-miterlimit:10;stroke-dasharray:none;stroke-opacity:1"
         d="m 135.066,9.602 14.399,0" /></g><g
       transform="matrix(1,0,0,-1,0,96.224648)"
       id="g5603"><path
         inkscape:connector-curvature="0"
         id="path5605"
         style="fill:none;stroke:#000000;stroke-width:0.43193001;stroke-linecap:round;stroke-linejoin:round;stroke-miterlimit:10;stroke-dasharray:none;stroke-opacity:1"
         d="m 142.266,16.805 0,-7.203" /></g><g
       transform="matrix(1,0,0,-1,0,96.224648)"
       id="g5607"><path
         inkscape:connector-curvature="0"
         id="path5609"
         style="fill:#000000;fill-opacity:1;fill-rule:nonzero;stroke:#000000;stroke-width:0.215965;stroke-linecap:round;stroke-linejoin:round;stroke-miterlimit:10;stroke-dasharray:none;stroke-opacity:1"
         d="m 143.465,9.602 c 0,1.921 -2.879,1.921 -2.879,0 0,-1.918 2.879,-1.918 2.879,0" /></g><g
       transform="matrix(1,0,0,-1,0,96.224648)"
       id="g5611"><path
         inkscape:connector-curvature="0"
         id="path5613"
         style="fill:none;stroke:#000000;stroke-width:0.43193001;stroke-linecap:round;stroke-linejoin:round;stroke-miterlimit:10;stroke-dasharray:none;stroke-opacity:1"
         d="m 99.066,60.004 -7.203,0" /></g><g
       transform="matrix(1,0,0,-1,0,96.224648)"
       id="g5615"><path
         inkscape:connector-curvature="0"
         id="path5617"
         style="fill:none;stroke:#000000;stroke-width:0.43193001;stroke-linecap:round;stroke-linejoin:round;stroke-miterlimit:10;stroke-dasharray:none;stroke-opacity:1"
         d="m 91.863,60.004 0,-50.402" /></g><g
       transform="matrix(1,0,0,-1,0,96.224648)"
       id="g5619"><path
         inkscape:connector-curvature="0"
         id="path5621"
         style="fill:#000000;fill-opacity:1;fill-rule:nonzero;stroke:#000000;stroke-width:0.215965;stroke-linecap:round;stroke-linejoin:round;stroke-miterlimit:10;stroke-dasharray:none;stroke-opacity:1"
         d="m 93.066,9.602 c 0,1.921 -2.882,1.921 -2.882,0 0,-1.918 2.882,-1.918 2.882,0" /></g><g
       transform="matrix(1,0,0,-1,0,96.224648)"
       id="g5623"><path
         inkscape:connector-curvature="0"
         id="path5625"
         style="fill:none;stroke:#000000;stroke-width:0.43193001;stroke-linecap:round;stroke-linejoin:round;stroke-miterlimit:10;stroke-dasharray:none;stroke-opacity:1"
         d="m 135.066,60.004 14.399,0" /></g><g
       transform="matrix(1,0,0,-1,0,96.224648)"
       id="g5627"><path
         inkscape:connector-curvature="0"
         id="path5629"
         style="fill:none;stroke:#000000;stroke-width:0.43193001;stroke-linecap:round;stroke-linejoin:round;stroke-miterlimit:10;stroke-dasharray:none;stroke-opacity:1"
         d="m 142.266,52.805 0,25.199" /></g><g
       transform="matrix(1,0,0,-1,0,96.224648)"
       id="g5631"><path
         inkscape:connector-curvature="0"
         id="path5633"
         style="fill:#000000;fill-opacity:1;fill-rule:nonzero;stroke:#000000;stroke-width:0.215965;stroke-linecap:round;stroke-linejoin:round;stroke-miterlimit:10;stroke-dasharray:none;stroke-opacity:1"
         d="m 143.465,60.004 c 0,1.918 -2.879,1.918 -2.879,0 0,-1.922 2.879,-1.922 2.879,0" /></g><g
       transform="matrix(1,0,0,-1,0,96.224648)"
       id="g5635"><path
         inkscape:connector-curvature="0"
         id="path5637"
         style="fill:none;stroke:#000000;stroke-width:0.43193001;stroke-linecap:round;stroke-linejoin:round;stroke-miterlimit:10;stroke-dasharray:none;stroke-opacity:1"
         d="m 185.465,9.602 7.199,0" /></g><g
       transform="matrix(1,0,0,-1,0,96.224648)"
       id="g5639"><path
         inkscape:connector-curvature="0"
         id="path5641"
         style="fill:none;stroke:#000000;stroke-width:0.43193001;stroke-linecap:round;stroke-linejoin:round;stroke-miterlimit:10;stroke-dasharray:none;stroke-opacity:1"
         d="m 192.664,9.602 0,7.203" /></g><g
       transform="matrix(1,0,0,-1,0,96.224648)"
       id="g5643"><path
         inkscape:connector-curvature="0"
         id="path5645"
         style="fill:none;stroke:#000000;stroke-width:0.43193001;stroke-linecap:round;stroke-linejoin:round;stroke-miterlimit:10;stroke-dasharray:none;stroke-opacity:1"
         d="m 185.465,60.004 7.199,0" /></g><g
       transform="matrix(1,0,0,-1,0,96.224648)"
       id="g5647"><path
         inkscape:connector-curvature="0"
         id="path5649"
         style="fill:none;stroke:#000000;stroke-width:0.43193001;stroke-linecap:round;stroke-linejoin:round;stroke-miterlimit:10;stroke-dasharray:none;stroke-opacity:1"
         d="m 192.664,52.805 0,43.199" /></g><g
       transform="matrix(1,0,0,-1,0,96.224648)"
       id="g5651"><path
         inkscape:connector-curvature="0"
         id="path5653"
         style="fill:none;stroke:#000000;stroke-width:0.43193001;stroke-linecap:round;stroke-linejoin:round;stroke-miterlimit:10;stroke-dasharray:none;stroke-opacity:1"
         d="m 142.266,78.004 7.199,0" /></g><g
       transform="matrix(1,0,0,-1,0,96.224648)"
       id="g5655"><path
         inkscape:connector-curvature="0"
         id="path5657"
         style="fill:none;stroke:#000000;stroke-width:0.43193001;stroke-linecap:round;stroke-linejoin:round;stroke-miterlimit:10;stroke-dasharray:none;stroke-opacity:1"
         d="m 192.664,78.004 -7.199,0" /></g><g
       transform="matrix(1,0,0,-1,0,96.224648)"
       id="g5659"><path
         inkscape:connector-curvature="0"
         id="path5661"
         style="fill:#000000;fill-opacity:1;fill-rule:nonzero;stroke:#000000;stroke-width:0.215965;stroke-linecap:round;stroke-linejoin:round;stroke-miterlimit:10;stroke-dasharray:none;stroke-opacity:1"
         d="m 193.863,60.004 c 0,1.918 -2.879,1.918 -2.879,0 0,-1.922 2.879,-1.922 2.879,0" /></g><g
       transform="matrix(1,0,0,-1,0,96.224648)"
       id="g5663"><path
         inkscape:connector-curvature="0"
         id="path5665"
         style="fill:none;stroke:#000000;stroke-width:0.43193001;stroke-linecap:round;stroke-linejoin:round;stroke-miterlimit:10;stroke-dasharray:none;stroke-opacity:1"
         d="m 41.465,67.203 0,28.801" /></g><g
       transform="matrix(1,0,0,-1,0,96.224648)"
       id="g5667"><path
         inkscape:connector-curvature="0"
         id="path5669"
         style="fill:none;stroke:#000000;stroke-width:0.43193001;stroke-linecap:round;stroke-linejoin:round;stroke-miterlimit:10;stroke-dasharray:none;stroke-opacity:1"
         d="m 41.465,96.004 151.199,0" /></g><g
       transform="matrix(1,0,0,-1,0,96.224648)"
       id="g5671"><path
         inkscape:connector-curvature="0"
         id="path5673"
         style="fill:#000000;fill-opacity:1;fill-rule:nonzero;stroke:#000000;stroke-width:0.215965;stroke-linecap:round;stroke-linejoin:round;stroke-miterlimit:10;stroke-dasharray:none;stroke-opacity:1"
         d="m 193.863,78.004 c 0,1.918 -2.879,1.918 -2.879,0 0,-1.922 2.879,-1.922 2.879,0" /></g><text
       id="text5675"
       style="font-variant:normal;font-weight:normal;font-size:6px;font-family:'DejaVu Sans';-inkscape-font-specification:DejaVuSans;writing-mode:lr-tb;fill:#000000;fill-opacity:1;fill-rule:nonzero;stroke:none"
       transform="scale(-0.99999991,-1.0000001)"
       x="-27.870129"
       y="-43.354141"><tspan
         id="tspan5677"
         y="-43.354141"
         x="-27.870129">U</tspan></text>
<text
       id="text5679"
       style="font-variant:normal;font-weight:normal;font-size:6px;font-family:'DejaVu Sans';-inkscape-font-specification:DejaVuSans;writing-mode:lr-tb;fill:#000000;fill-opacity:1;fill-rule:nonzero;stroke:none"
       transform="scale(0.99999991,-1.0000001)"
       x="63.185314"
       y="-91.601624"><tspan
         id="tspan5681"
         y="-91.601624"
         x="63.185314">R</tspan></text>
<text
       id="text5683"
       style="font-variant:normal;font-weight:normal;font-size:3px;font-family:'DejaVu Sans';-inkscape-font-specification:DejaVuSans;writing-mode:lr-tb;fill:#000000;fill-opacity:1;fill-rule:nonzero;stroke:none"
       transform="scale(1,-1)"
       x="67.357185"
       y="-91.601631"><tspan
         id="tspan5685"
         y="-91.601631"
         x="67.357185">1</tspan></text>
<text
       id="text5687"
       style="font-variant:normal;font-weight:normal;font-size:6px;font-family:'DejaVu Sans';-inkscape-font-specification:DejaVuSans;writing-mode:lr-tb;fill:#000000;fill-opacity:1;fill-rule:nonzero;stroke:none"
       transform="scale(0.99999991,-1.0000001)"
       x="113.58155"
       y="-91.850616"><tspan
         id="tspan5689"
         y="-91.850616"
         x="113.58155">R</tspan></text>
<text
       id="text5691"
       style="font-variant:normal;font-weight:normal;font-size:3px;font-family:'DejaVu Sans';-inkscape-font-specification:DejaVuSans;writing-mode:lr-tb;fill:#000000;fill-opacity:1;fill-rule:nonzero;stroke:none"
       transform="scale(1,-1)"
       x="117.75341"
       y="-91.850624"><tspan
         id="tspan5693"
         y="-91.850624"
         x="117.75341">2</tspan></text>
<text
       id="text5695"
       style="font-variant:normal;font-weight:normal;font-size:6px;font-family:'DejaVu Sans';-inkscape-font-specification:DejaVuSans;writing-mode:lr-tb;fill:#000000;fill-opacity:1;fill-rule:nonzero;stroke:none"
       transform="scale(0.99999991,-1.0000001)"
       x="164.49445"
       y="-91.119827"><tspan
         id="tspan5697"
         y="-91.119827"
         x="164.49445">R</tspan></text>
<text
       id="text5699"
       style="font-variant:normal;font-weight:normal;font-size:3px;font-family:'DejaVu Sans';-inkscape-font-specification:DejaVuSans;writing-mode:lr-tb;fill:#000000;fill-opacity:1;fill-rule:nonzero;stroke:none"
       transform="scale(1,-1)"
       x="168.66631"
       y="-91.119835"><tspan
         id="tspan5701"
         y="-91.119835"
         x="168.66631">5</tspan></text>
<text
       id="text5703"
       style="font-variant:normal;font-weight:normal;font-size:6px;font-family:'DejaVu Sans';-inkscape-font-specification:DejaVuSans;writing-mode:lr-tb;fill:#000000;fill-opacity:1;fill-rule:nonzero;stroke:none"
       transform="scale(0.99999991,-1.0000001)"
       x="146.95506"
       y="-58.964314"><tspan
         id="tspan5705"
         y="-58.964314"
         x="146.95506">R</tspan></text>
<text
       id="text5707"
       style="font-variant:normal;font-weight:normal;font-size:3px;font-family:'DejaVu Sans';-inkscape-font-specification:DejaVuSans;writing-mode:lr-tb;fill:#000000;fill-opacity:1;fill-rule:nonzero;stroke:none"
       transform="scale(1,-1)"
       x="151.12692"
       y="-58.964317"><tspan
         id="tspan5709"
         y="-58.964317"
         x="151.12692">4</tspan></text>
<text
       id="text5711"
       style="font-variant:normal;font-weight:normal;font-size:6px;font-family:'DejaVu Sans';-inkscape-font-specification:DejaVuSans;writing-mode:lr-tb;fill:#000000;fill-opacity:1;fill-rule:nonzero;stroke:none"
       transform="scale(0.99999991,-1.0000001)"
       x="197.13715"
       y="-59.451519"><tspan
         id="tspan5713"
         y="-59.451519"
         x="197.13715">R</tspan></text>
<text
       id="text5715"
       style="font-variant:normal;font-weight:normal;font-size:3px;font-family:'DejaVu Sans';-inkscape-font-specification:DejaVuSans;writing-mode:lr-tb;fill:#000000;fill-opacity:1;fill-rule:nonzero;stroke:none"
       transform="scale(1,-1)"
       x="201.30901"
       y="-59.451523"><tspan
         id="tspan5717"
         y="-59.451523"
         x="201.30901">7</tspan></text>
<text
       id="text5719"
       style="font-variant:normal;font-weight:normal;font-size:6px;font-family:'DejaVu Sans';-inkscape-font-specification:DejaVuSans;writing-mode:lr-tb;fill:#000000;fill-opacity:1;fill-rule:nonzero;stroke:none"
       transform="scale(0.99999991,-1.0000001)"
       x="164.49445"
       y="-40.937748"><tspan
         id="tspan5721"
         y="-40.937748"
         x="164.49445">R</tspan></text>
<text
       id="text5723"
       style="font-variant:normal;font-weight:normal;font-size:3px;font-family:'DejaVu Sans';-inkscape-font-specification:DejaVuSans;writing-mode:lr-tb;fill:#000000;fill-opacity:1;fill-rule:nonzero;stroke:none"
       transform="scale(1,-1)"
       x="168.66631"
       y="-40.937752"><tspan
         id="tspan5725"
         y="-40.937752"
         x="168.66631">6</tspan></text>
<text
       id="text5727"
       style="font-variant:normal;font-weight:normal;font-size:6px;font-family:'DejaVu Sans';-inkscape-font-specification:DejaVuSans;writing-mode:lr-tb;fill:#000000;fill-opacity:1;fill-rule:nonzero;stroke:none"
       transform="scale(0.99999991,-1.0000001)"
       x="164.49443"
       y="-22.667564"><tspan
         id="tspan5729"
         y="-22.667564"
         x="164.49443">R</tspan></text>
<text
       id="text5731"
       style="font-variant:normal;font-weight:normal;font-size:3px;font-family:'DejaVu Sans';-inkscape-font-specification:DejaVuSans;writing-mode:lr-tb;fill:#000000;fill-opacity:1;fill-rule:nonzero;stroke:none"
       transform="scale(1,-1)"
       x="168.66629"
       y="-22.667566"><tspan
         id="tspan5733"
         y="-22.667566"
         x="168.66629">8</tspan></text>
<text
       id="text5735"
       style="font-variant:normal;font-weight:normal;font-size:6px;font-family:'DejaVu Sans';-inkscape-font-specification:DejaVuSans;writing-mode:lr-tb;fill:#000000;fill-opacity:1;fill-rule:nonzero;stroke:none"
       transform="scale(0.99999991,-1.0000001)"
       x="114.31236"
       y="-41.181347"><tspan
         id="tspan5737"
         y="-41.181347"
         x="114.31236">R</tspan></text>
<text
       id="text5739"
       style="font-variant:normal;font-weight:normal;font-size:3px;font-family:'DejaVu Sans';-inkscape-font-specification:DejaVuSans;writing-mode:lr-tb;fill:#000000;fill-opacity:1;fill-rule:nonzero;stroke:none"
       transform="scale(1,-1)"
       x="118.48422"
       y="-41.181351"><tspan
         id="tspan5741"
         y="-41.181351"
         x="118.48422">3</tspan></text>
<path
       style="fill:none;fill-rule:evenodd;stroke:#009700;stroke-width:0.4;stroke-linecap:butt;stroke-linejoin:miter;stroke-opacity:1;stroke-miterlimit:4;stroke-dasharray:none"
       d="m 44.358054,57.87896 c 0,0 5.693012,22.060422 21.586004,19.925543 15.89299,-2.13488 18.265078,-26.8046 21.11159,-40.325504 2.846504,-13.520904 20.637172,-11.148815 20.637172,-11.148815 0,0 26.8046,1.186044 27.51622,-7.827892 0.71162,-9.01394 41.51155,-7.590684 41.51155,-7.590684 0,0 11.14882,-1.423256 6.87906,-4.032552 C 179.32989,4.26976 46.018516,-6.167424 45.781307,32.497614"
       id="path6927"
       inkscape:connector-curvature="0" /><path
       style="fill:none;fill-rule:evenodd;stroke:#008e00;stroke-width:0.40000001;stroke-linecap:butt;stroke-linejoin:miter;stroke-miterlimit:4;stroke-dasharray:none;stroke-opacity:1"
       d="m 45.722004,32.319706 1.779067,-2.194181"
       id="path6931"
       inkscape:connector-curvature="0" /><path
       style="fill:none;fill-rule:evenodd;stroke:#008700;stroke-width:0.4;stroke-linecap:butt;stroke-linejoin:miter;stroke-opacity:1;stroke-miterlimit:4;stroke-dasharray:none"
       d="m 44.298752,30.006921 1.423253,2.372089"
       id="path6933"
       inkscape:connector-curvature="0" /><text
       y="-12.345665"
       x="69.468033"
       transform="scale(0.99999991,-1.0000001)"
       style="font-variant:normal;font-weight:normal;font-size:6px;font-family:'DejaVu Sans';-inkscape-font-specification:DejaVuSans;writing-mode:lr-tb;fill:#000000;fill-opacity:1;fill-rule:nonzero;stroke:none"
       id="text7137"><tspan
         x="69.468033"
         y="-12.345665"
         id="tspan7139">I</tspan></text>
<text
       y="-12.177932"
       x="71.291649"
       transform="scale(1,-1)"
       style="font-variant:normal;font-weight:normal;font-size:3px;font-family:'DejaVu Sans';-inkscape-font-specification:DejaVuSans;writing-mode:lr-tb;fill:#000000;fill-opacity:1;fill-rule:nonzero;stroke:none"
       id="text7141"><tspan
         x="71.291649"
         y="-12.177932"
         id="tspan7143">X</tspan></text>
</g></svg>